<svg xmlns="http://www.w3.org/2000/svg" width="251.9" height="284.14" viewBox="0 0 251.9 284.14">
  <defs>
    <style>
      .cls-1 {
        fill: #86b3a6;
      }

      .cls-2 {
        fill: #a45435;
      }

      .cls-3 {
        fill: #d3844a;
      }

      .cls-4 {
        fill: #fff;
      }

      .cls-5 {
        fill: #aaaaa9;
      }

      .cls-6 {
        fill: #ec9259;
      }

      .cls-7 {
        fill: #3c2118;
      }

      .cls-8 {
        fill: #1e171c;
      }

      .cls-9 {
        fill: #382015;
      }

      .cls-10 {
        fill: #f26b75;
      }
    </style>
  </defs>
  <title>Fichier 1</title>
  <g id="Calque_2" data-name="Calque 2">
    <g id="Layer_1" data-name="Layer 1">
      <g>
        <ellipse class="cls-1" cx="124.8" cy="264.64" rx="115.7" ry="19.5"/>
        <g>
          <g>
            <path class="cls-2" d="M167.3,228.44a72.88,72.88,0,0,0,22-37c1.1-4.8,8.3-4.1,8.5.8.7,16.4-4.2,35.1-23.9,49.3C129.8,273.24,167.3,228.44,167.3,228.44Z"/>
            <g>
              <path class="cls-3" d="M151.6,182.64c-.6-4.7-6.9-10-11.6-11.4-5-1.5-10.3-1.7-15.5-1.6-4.3.1-9.7-.7-13.7.7a23.94,23.94,0,0,0-12.9,12.3s-9.2,70,0,77c7.2,5.4,17.8,5.3,26.6,4.8,8.5-.4,20.2.4,27.1-4.8C160.8,252.64,151.6,182.64,151.6,182.64Z"/>
              <path class="cls-4" d="M175,248.44v-50.2c0-12.5,0-26.1-5.9-37.6-2.6-5.3-7.3-9.2-10.1-14.4-.5-1-5-12.1-5.6-12.1H95.8c-1.4,3.5-2.9,6.9-4.6,10.3-4.2,8.2-10.5,14.4-13,23.3a112.47,112.47,0,0,0-3.9,30.5v50.2s-10.7,2.4-10.7,10.4,15.7,10.4,28.4,8.4,11.5-15.7,10-26.1-19.2-70,22.6-70,24.2,59.6,22.6,70-2.7,24,10,26.1,28.4-.3,28.4-8.4S175,248.44,175,248.44Z"/>
              <path class="cls-5" d="M161.3,149.84a31.72,31.72,0,0,1-2.3-3.6c-.5-1-5-12.1-5.6-12.1H95.8c-1.4,3.5-2.9,6.9-4.6,10.3-1,1.9-2,3.7-3.1,5.4,17.1,18.8,29.5,16.3,29.5,16.3l7.1.4,7.1-.4S144.2,168.64,161.3,149.84Z"/>
            </g>
            <g>
              <path class="cls-3" d="M169.9,19.84s25.9-15.5,32.5-16.3,29.5,15.5,31.8,18.1,17.7,34.3,17.7,44.3c0,6-9.7-1.2-11.4-2.4-5.1-3.7-10.2-12.5-17.2-10.6-5.2,1.4-10.7,5.2-15.6,7.5-8.6,4.1-20,7.6-27.5,13.6C178.4,75.54,169.9,19.84,169.9,19.84Z"/>
              <path class="cls-2" d="M177.3,22.74,174,45c2.5,14.5,5.3,29.8,6.3,29,7.5-6,18.9-9.5,27.5-13.6,4.9-2.3,10.4-6.1,15.6-7.5a7.46,7.46,0,0,1,4.2.1C211.7,2.74,177.3,22.74,177.3,22.74Z"/>
              <path class="cls-3" d="M82,19.84S56.1,4.34,49.5,3.54,20,19,17.7,21.64,0,55.94,0,65.94c0,6,9.7-1.2,11.4-2.4,5.1-3.7,10.2-12.5,17.2-10.6,5.2,1.4,10.7,5.2,15.6,7.5,8.6,4.1,20,7.6,27.5,13.6C73.6,75.54,82,19.84,82,19.84Z"/>
              <path class="cls-2" d="M74.7,22.74,78,45c-2.5,14.5-5.3,29.8-6.3,29-7.5-6-18.9-9.5-27.5-13.6-4.9-2.3-10.4-6.1-15.6-7.5a7.46,7.46,0,0,0-4.2.1C40.3,2.74,74.7,22.74,74.7,22.74Z"/>
            </g>
            <path class="cls-6" d="M178.8,17.44c-.1-.1-.2-.2-.3-.2C161.2,1.54,129.1-1.86,107,.84c-15.7,1.9-32.1,7.9-41.5,21.4-24.1,35,2.8,108.2,35.9,129a43.7,43.7,0,0,0,23.3,7.1c40.3,0,63.7-55.2,67.7-88.5C194.5,52,192.9,30.54,178.8,17.44Z"/>
            <path class="cls-4" d="M138.7,91.34s-5.4-43.6-14-44.8c-8.6,1.3-14,44.8-14,44.8C61.5,97.44,76.9,127,76.9,127c22.6,34.6,40.7,31,40.7,31l7.1.4,7.1-.4s18.1,3.6,40.7-31C172.5,127,188,97.44,138.7,91.34Z"/>
            <path class="cls-7" d="M143.8,110.74c-2.4-5.5-13.3-3.9-17.9-3.7-5,.3-18-1.7-20.3,3.7s13.6,18.8,19.1,17.9C130.2,129.54,146.2,116.24,143.8,110.74Z"/>
          </g>
          <g>
            <g>
              <circle class="cls-4" cx="88.7" cy="80.54" r="11.5"/>
              <circle class="cls-8" cx="88.7" cy="80.54" r="3.7"/>
            </g>
            <g>
              <circle class="cls-4" cx="160.3" cy="80.54" r="11.5"/>
              <circle class="cls-8" cx="160.3" cy="80.54" r="3.7"/>
            </g>
            <path class="cls-9" d="M139.2,147a18.08,18.08,0,0,0-7.5-11.5,12.93,12.93,0,0,0-6.7-2.1,11.84,11.84,0,0,0-6.7,2.1,18.08,18.08,0,0,0-7.5,11.5,3.76,3.76,0,0,0,.1,2.1,2.37,2.37,0,0,0,1.3,1.3c2.2,1.3,5.1.8,7.7.5,1.7-.2,3.4-.3,5.1-.4,1.7.1,3.4.2,5.1.4,2.6.3,5.5.8,7.7-.5a2.73,2.73,0,0,0,1.3-1.3A3.07,3.07,0,0,0,139.2,147Z"/>
            <g>
              <path class="cls-10" d="M128.2,142.34c-3.2-.2-3.2,4-3.2,4h0s.2-3.8-3.2-4c-3.7-.2-4.9,1-4.9,5.4a8,8,0,0,0,.6,2.7l2.4-.3c1.7-.2,3.4-.3,5.1-.4,1.7.1,3.4.2,5.1.4l2.4.3a5.85,5.85,0,0,0,.6-2.7C133.1,143.34,131.9,142.54,128.2,142.34Z"/>
              <path class="cls-7" d="M132.8,150.84h-.3a16.35,16.35,0,0,0-2.2-.2h-.2c-1.5-.2-3.2-.3-5.1-.4-1.8.1-3.5.2-5,.4h-.2a16.35,16.35,0,0,1-2.2.2h-.3l-.1-.3a7.61,7.61,0,0,1-.7-2.9c0-4.6,1.4-6,5.4-5.8a4,4,0,0,1,2.6,1.2,2.66,2.66,0,0,1,.6,1,3.53,3.53,0,0,1,.8-1.3,3.24,3.24,0,0,1,2.4-.9c3.8.2,5.3,1,5.3,5.8a8,8,0,0,1-.7,2.9Zm-7.8-1.5c1.9.1,3.6.2,5.2.4h.2c.6.1,1.2.1,1.8.2a5,5,0,0,0,.4-2.2c0-4.1-.9-4.8-4.4-4.9H128a2,2,0,0,0-1.5.6,4.72,4.72,0,0,0-1,2.9v.5h-1v-.5c0-.1.2-3.3-2.7-3.5s-4.4.3-4.4,4.9a8.27,8.27,0,0,0,.4,2.2c.6-.1,1.2-.1,1.8-.2h.2A28.16,28.16,0,0,1,125,149.34Z"/>
            </g>
          </g>
          <g>
            <path class="cls-7" d="M30.7,91.64a11.65,11.65,0,0,0-9.5-.5,11.37,11.37,0,0,0-6.6,6.8,11.08,11.08,0,0,0,.9,9.4l12.1,21a8,8,0,0,0,9.7,3.4,7.81,7.81,0,0,0,4.7-9.1L36.4,99A10.45,10.45,0,0,0,30.7,91.64Z"/>
            <path class="cls-7" d="M40,138.34a8.77,8.77,0,1,0,11.4,4.9A8.77,8.77,0,0,0,40,138.34Z"/>
          </g>
          <g>
            <path class="cls-7" d="M236.9,83.94a7.21,7.21,0,0,0-3.4-4.9,7.17,7.17,0,0,0-10.3,3.5l-5.7,14.2a4.94,4.94,0,0,0,2.1,6.1,5.09,5.09,0,0,0,6.4-1.2l9.6-12A7,7,0,0,0,236.9,83.94Z"/>
            <path class="cls-7" d="M217.3,106.84a5.56,5.56,0,1,0,2,7.6A5.65,5.65,0,0,0,217.3,106.84Z"/>
          </g>
        </g>
      </g>
    </g>
  </g>
</svg>
